<svg xmlns="http://www.w3.org/2000/svg" width="144.135" height="72.018" viewBox="0 0 144.135 72.018">
  <g id="vanhike_icon" transform="translate(-1106 -348.5)">
    <path id="Path_44" data-name="Path 44" d="M0,137.095H16.6l27.817-27.789,27.668,27.668,8.328-8.328-36-36Z" transform="translate(1106 283.423)" fill="#fff"/>
    <path id="Path_45" data-name="Path 45" d="M214.118,128.6l8.328,8.328,27.668-27.668,27.817,27.789h16.6L250.115,92.6Z" transform="translate(955.602 283.455)" fill="#fff"/>
    <path id="Path_46" data-name="Path 46" d="M184.881,0l-8.328,8.328.026.026L160.637,24.3l8.328,8.328,15.941-15.941L200.834,32.61l8.328-8.328L193.235,8.354l.012-.012L184.918.014l-.012.012Z" transform="translate(993.168 348.5)" fill="#fff"/>
    <path id="Path_47" data-name="Path 47" d="M129.482,185.9l-.055-.055-8.323,8.329,8.323,8.328.055-.055.055.055,8.329-8.328-8.329-8.329Z" transform="translate(1020.936 217.963)" fill="#fff"/>
    <path id="Path_48" data-name="Path 48" d="M306.905,194.125l8.328,8.328.055-.055.055.055,8.323-8.328-8.323-8.328-.055.055-.055-.055Z" transform="translate(890.428 217.996)" fill="#fff"/>
    <path id="Path_49" data-name="Path 49" d="M222.335,92.788l-.055.055-.055-.055-8.328,8.328,8.328,8.328.055-.055.055.055,8.323-8.328Z" transform="translate(955.758 283.325)" fill="#fff"/>
  </g>
</svg>
